<svg width="1099" height="158" viewBox="0 0 1099 158" fill="none" xmlns="http://www.w3.org/2000/svg">
<path fill-rule="evenodd" clip-rule="evenodd" d="M0 78.0902V104.255C35.066 134.362 67.8095 153.367 139.11 157.131C210.411 161.835 279.059 147.713 351.529 108.197C422.829 69.6226 476.113 78.0902 547.414 78.0902C619.884 78.0902 718.591 104.434 789.892 108.197C861.192 112.901 966.652 69.6226 1001.72 60.2141L1035.61 46.6404L1059.08 32.0358L1099 0H1037.95H1001.72C966.652 0 894.183 0 822.882 0C751.581 0 680.28 0 607.811 0C536.51 0 465.209 0 393.908 0C321.438 0 250.137 0 178.837 0C107.536 0 35.066 0 0 0V78.0902Z" fill="#71C4EF"/>
</svg>
