<svg width="283" height="258" viewBox="0 0 283 258" fill="none" xmlns="http://www.w3.org/2000/svg">
<path fill-rule="evenodd" clip-rule="evenodd" d="M201.652 60.4C201.652 93.6199 174.722 120.55 141.502 120.55C108.283 120.55 81.3525 93.6199 81.3525 60.4C81.3525 27.1801 108.283 0.25 141.502 0.25C174.722 0.25 201.652 27.1801 201.652 60.4ZM181.602 60.4C181.602 82.5466 163.649 100.5 141.502 100.5C119.356 100.5 101.402 82.5466 101.402 60.4C101.402 38.2534 119.356 20.3 141.502 20.3C163.649 20.3 181.602 38.2534 181.602 60.4Z" fill="#FFFEFB"/>
<path d="M141.502 150.625C76.5968 150.625 21.2954 189.005 0.229736 242.775C5.36148 247.871 10.7674 252.691 16.4234 257.211C32.1099 207.845 81.3195 170.675 141.502 170.675C201.685 170.675 250.895 207.845 266.582 257.212C272.238 252.691 277.644 247.871 282.775 242.775C261.71 189.005 206.408 150.625 141.502 150.625Z" fill="#FFFEFB"/>
</svg>
